<svg xmlns="http://www.w3.org/2000/svg" xmlns:xlink="http://www.w3.org/1999/xlink" version="1.1" id="Layer_1" x="0px" y="0px" width="612px" height="792px" viewBox="0 0 612 792" enable-background="new 0 0 612 792" xml:space="preserve">
<g>
	<path fill="#000FF0" d="M75.931,227.467c41.867,0,75.925-34.058,75.925-75.931c0-0.214-0.006-0.422-0.018-0.636   c0.342-21.292,17.766-38.501,39.131-38.501c21.329,0,38.728,17.148,39.131,38.378c-0.012,0.251-0.018,0.502-0.018,0.752   c0,41.867,34.064,75.931,75.931,75.931c41.866,0,75.924-34.058,75.924-75.931c0-0.318-0.012-0.63-0.03-0.942   c0.502-21.145,17.858-38.195,39.125-38.195c21.371,0,38.795,17.209,39.132,38.501c-0.013,0.208-0.019,0.422-0.019,0.636   c0,41.867,34.058,75.931,75.931,75.931c41.867,0,75.925-34.058,75.925-75.931c0-7.044-5.71-12.754-12.754-12.754h-11.279   c-7.044,0-12.754,5.71-12.754,12.754c0,21.585-17.559,39.144-39.138,39.144c-20.924,0-38.066-16.5-39.089-37.179   c0.099-0.637,0.147-1.297,0.147-1.965c0-0.783-0.073-1.542-0.202-2.283c-1.212-40.808-34.792-73.636-75.9-73.636   c-41.866,0-75.931,34.058-75.931,75.925c0,0.331,0.013,0.655,0.037,0.985c-0.521,21.126-17.871,38.158-39.125,38.158   c-20.925,0-38.073-16.5-39.095-37.179c0.098-0.636,0.147-1.297,0.147-1.964c0-0.783-0.073-1.542-0.202-2.283   c-1.212-40.814-34.792-73.642-75.895-73.642c-41.867,0-75.924,34.058-75.924,75.925c0,0.214,0.006,0.428,0.018,0.636   c-0.343,21.286-17.766,38.501-39.131,38.501c-21.579,0-39.137-17.558-39.137-39.144c0-7.044-5.71-12.754-12.754-12.754H12.754   C5.71,138.783,0,144.493,0,151.537C0,193.403,34.064,227.467,75.931,227.467z"/>
	<path fill="#000FF0" d="M599.246,306.746h-11.279c-7.044,0-12.754,5.71-12.754,12.754c0,21.585-17.559,39.144-39.138,39.144   c-20.924,0-38.066-16.5-39.088-37.179c0.098-0.636,0.146-1.297,0.146-1.964c0-0.783-0.073-1.542-0.202-2.283   c-1.212-40.814-34.792-73.642-75.9-73.642c-41.866,0-75.931,34.058-75.931,75.925c0,0.331,0.013,0.655,0.037,0.985   c-0.521,21.126-17.871,38.158-39.125,38.158c-20.925,0-38.073-16.5-39.095-37.179c0.098-0.636,0.147-1.297,0.147-1.964   c0-0.783-0.073-1.542-0.202-2.283c-1.212-40.814-34.792-73.642-75.895-73.642c-41.867,0-75.924,34.058-75.924,75.925   c0,0.214,0.006,0.428,0.018,0.637c-0.343,21.285-17.766,38.5-39.131,38.5c-21.579,0-39.137-17.558-39.137-39.144   c0-7.044-5.71-12.754-12.754-12.754H12.754C5.71,306.746,0,312.45,0,319.5c0,41.867,34.064,75.931,75.931,75.931   c41.867,0,75.925-34.058,75.925-75.931c0-0.214-0.006-0.422-0.018-0.637c0.342-21.291,17.766-38.5,39.131-38.5   c21.329,0,38.728,17.148,39.131,38.378c-0.012,0.251-0.018,0.502-0.018,0.752c0,41.867,34.064,75.931,75.931,75.931   c41.866,0,75.924-34.058,75.924-75.931c0-0.318-0.012-0.63-0.03-0.942c0.502-21.145,17.858-38.195,39.125-38.195   c21.371,0,38.795,17.209,39.132,38.501c-0.013,0.208-0.019,0.422-0.019,0.636c0,41.867,34.058,75.931,75.931,75.931   c41.867,0,75.925-34.058,75.925-75.925C612,312.45,606.29,306.746,599.246,306.746z"/>
	<path fill="#000FF0" d="M599.246,474.703h-11.279c-7.044,0-12.754,5.71-12.754,12.754c0,21.586-17.559,39.144-39.138,39.144   c-20.924,0-38.066-16.499-39.088-37.179c0.098-0.637,0.146-1.298,0.146-1.965c0-0.783-0.073-1.542-0.202-2.282   c-1.212-40.814-34.792-73.643-75.9-73.643c-41.866,0-75.931,34.059-75.931,75.925c0,0.331,0.013,0.655,0.037,0.985   c-0.521,21.127-17.871,38.158-39.125,38.158c-20.925,0-38.073-16.499-39.095-37.179c0.098-0.637,0.147-1.298,0.147-1.965   c0-0.783-0.073-1.542-0.202-2.282c-1.212-40.814-34.792-73.643-75.895-73.643c-41.867,0-75.924,34.059-75.924,75.925   c0,0.215,0.006,0.429,0.018,0.637c-0.343,21.285-17.766,38.501-39.131,38.501c-21.579,0-39.137-17.559-39.137-39.144   c0-7.044-5.71-12.754-12.754-12.754H12.754C5.71,474.703,0,480.413,0,487.457c0,41.867,34.064,75.931,75.931,75.931   c41.867,0,75.925-34.058,75.925-75.931c0-0.214-0.006-0.422-0.018-0.637c0.342-21.291,17.766-38.5,39.131-38.5   c21.329,0,38.728,17.147,39.131,38.378c-0.012,0.251-0.018,0.502-0.018,0.753c0,41.867,34.064,75.931,75.931,75.931   c41.866,0,75.924-34.058,75.924-75.931c0-0.318-0.012-0.63-0.03-0.942c0.502-21.145,17.858-38.195,39.125-38.195   c21.371,0,38.795,17.21,39.132,38.501c-0.013,0.208-0.019,0.423-0.019,0.637c0,41.867,34.058,75.931,75.931,75.931   c41.867,0,75.925-34.058,75.925-75.931C612,480.413,606.29,474.703,599.246,474.703z"/>
</g>
</svg>
